<svg width="24" height="24" viewBox="0 0 24 24" fill="none" xmlns="http://www.w3.org/2000/svg">
<path d="M4 5C4 3.34315 5.34315 2 7 2C8.65685 2 10 3.34315 10 5H14C14 3.34315 15.3431 2 17 2C18.6569 2 20 3.34315 20 5V7C20 8.65685 18.6569 10 17 10C15.3431 10 14 8.65685 14 7H13V17H14C14 15.3431 15.3431 14 17 14C18.6569 14 20 15.3431 20 17V19C20 20.6569 18.6569 22 17 22C15.3431 22 14 20.6569 14 19H10C10 20.6569 8.65685 22 7 22C5.34315 22 4 20.6569 4 19V17C4 15.3431 5.34315 14 7 14C8.65685 14 10 15.3431 10 17H11V7H10C10 8.65685 8.65685 10 7 10C5.34315 10 4 8.65685 4 7V5Z" fill="#4A628A"/>
</svg>
