<svg width="24" height="24" viewBox="0 0 24 24" fill="none" xmlns="http://www.w3.org/2000/svg">
<path fill-rule="evenodd" clip-rule="evenodd" d="M17 2C18.6569 2 20 3.34315 20 5V7C20 8.65685 18.6569 10 17 10C15.3431 10 14 8.65685 14 7H13V17H14C14 15.3431 15.3431 14 17 14C18.6569 14 20 15.3431 20 17V19C20 20.6569 18.6569 22 17 22C15.3431 22 14 20.6569 14 19H10C10 20.6569 8.65685 22 7 22C5.34315 22 4 20.6569 4 19V17C4 15.3431 5.34315 14 7 14C8.65685 14 10 15.3431 10 17H11V7H10C10 8.65685 8.65685 10 7 10C5.34315 10 4 8.65685 4 7V5C4 3.34315 5.34315 2 7 2C8.65685 2 10 3.34315 10 5H14C14 3.34315 15.3431 2 17 2ZM17 16C16.4872 16 16.0645 16.386 16.0067 16.8834L16 17V19C16 19.5523 16.4477 20 17 20C17.5128 20 17.9355 19.614 17.9933 19.1166L18 19V17C18 16.4477 17.5523 16 17 16ZM7 16C6.48717 16 6.06449 16.386 6.00673 16.8834L6 17V19C6 19.5523 6.44772 20 7 20C7.51283 20 7.93551 19.614 7.99327 19.1166L8 19V17C8 16.4477 7.55228 16 7 16ZM7 4C6.44772 4 6 4.44772 6 5V7C6 7.55228 6.44772 8 7 8C7.55228 8 8 7.55228 8 7V5C8 4.44772 7.55228 4 7 4ZM17 4C16.4477 4 16 4.44772 16 5V7C16 7.55228 16.4477 8 17 8C17.5523 8 18 7.55228 18 7V5C18 4.44772 17.5523 4 17 4Z" fill="#4A628A"/>
</svg>
