<svg width="20" height="20" viewBox="0 0 20 20" fill="none" xmlns="http://www.w3.org/2000/svg">
<path fill-rule="evenodd" clip-rule="evenodd" d="M10 2.98023e-07C4.47715 1.33429e-07 -1.33429e-07 4.47715 -2.98023e-07 10C-4.62616e-07 15.5228 4.47715 20 10 20C15.5228 20 20 15.5228 20 10C20 4.47715 15.5228 4.62616e-07 10 2.98023e-07ZM8.7493 5.15746C9.1479 5.05485 9.5668 5 10 5C12.7614 5 15 7.23858 15 10C15 11.2812 14.5194 12.4478 13.7271 13.3331C13.3588 13.7446 13.3938 14.3768 13.8053 14.7451C14.2168 15.1135 14.849 15.0784 15.2173 14.6669C16.3252 13.4291 17 11.7922 17 10C17 6.13401 13.866 3 10 3C9.3973 3 8.8109 3.07641 8.2507 3.22059C7.71589 3.35825 7.3939 3.90343 7.53156 4.43828C7.66922 4.97314 8.2144 5.29513 8.7493 5.15746ZM5.15746 8.7493C5.29513 8.2144 4.97314 7.66922 4.43828 7.53156C3.90343 7.3939 3.35825 7.71589 3.22059 8.2507C3.07641 8.8109 3 9.3973 3 10C3 11.7922 3.67482 13.4291 4.78265 14.6669C5.15098 15.0784 5.78317 15.1135 6.1947 14.7451C6.60623 14.3768 6.64125 13.7446 6.27292 13.3331C5.48059 12.4478 5 11.2812 5 10C5 9.5668 5.05485 9.1479 5.15746 8.7493ZM10 12C11.1046 12 12 11.1046 12 10C12 8.8954 11.1046 8 10 8C9.8208 8 9.6472 8.0236 9.482 8.0677L5.70711 4.29289C5.31658 3.90237 4.68342 3.90237 4.29289 4.29289C3.90237 4.68342 3.90237 5.31658 4.29289 5.70711L8.0677 9.482C8.0236 9.6472 8 9.8208 8 10C8 11.1046 8.8954 12 10 12Z" fill="#4A628A"/>
</svg>
