<svg width="20" height="20" viewBox="0 0 20 20" fill="none" xmlns="http://www.w3.org/2000/svg">
<path d="M20 16.3V8.14952C20 7.32952 19.4036 6.66762 18.6673 6.66762H17.3341C16.5973 6.66762 16.0014 7.33238 16.0014 8.14952V13.3262L20 16.3ZM20 16.3C20.0045 17.1171 18.7409 18.52 18.0041 18.52H16.7536L20 16.3ZM16.0036 17.77H15.2536V18.52V18.8895C15.2536 19.0143 15.2083 19.1122 15.1534 19.173C15.0996 19.2327 15.0456 19.25 15.0036 19.25C14.9624 19.25 14.9082 19.2329 14.8537 19.1724C14.7982 19.1108 14.7532 19.0126 14.7532 18.8895V18.52V17.77H14.0032H6.00136H5.25136V18.52V18.8895C5.25136 19.0143 5.20605 19.1122 5.15118 19.173C5.09732 19.2327 5.04331 19.25 5.00136 19.25C4.96016 19.25 4.90593 19.2329 4.85144 19.1724C4.79589 19.1108 4.75091 19.0126 4.75091 18.8895V18.52V17.77H4.00091H2.00513C2.0064 17.77 2.00705 17.7699 2.00707 17.7698C2.0073 17.7683 1.93491 17.7559 1.78603 17.6591C1.62969 17.5575 1.45135 17.4028 1.28149 17.2141C1.11222 17.0261 0.969271 16.8242 0.872581 16.6406C0.769084 16.4442 0.75 16.3286 0.75 16.2971V8.14952C0.75 7.66902 1.08366 7.41762 1.33273 7.41762H2.66591C2.91557 7.41762 3.24863 7.66732 3.24863 8.14952V14.0762V14.8262H3.99863H16.0014H16.7514V14.0762V8.14952C16.7514 7.66902 17.085 7.41762 17.3341 7.41762H18.6673C18.9169 7.41762 19.25 7.66732 19.25 8.14952L19.25 16.3L19.25 16.3042C19.2502 16.3335 19.2323 16.4472 19.1296 16.6431C19.0337 16.8258 18.8914 17.0271 18.7225 17.2148C18.5531 17.4031 18.3749 17.5576 18.2187 17.6592C18.0698 17.756 17.9973 17.7683 17.9976 17.7698C17.9976 17.7699 17.9983 17.77 17.9996 17.77H16.0036ZM13.9209 7.40905V11.8443H6.08318V7.40857C6.08318 5.87098 4.96434 4.48379 3.415 4.43648L3.415 2.22436C3.415 2.22427 3.415 2.22417 3.415 2.22407C3.4158 1.33362 4.04843 0.75 4.66682 0.75H15.3364C15.9547 0.75 16.5868 1.33358 16.5868 2.22333V4.43703C15.0386 4.48563 13.9209 5.8722 13.9209 7.40905Z" fill="white" stroke="#4A628A" stroke-width="1.5"/>
</svg>
