<svg width="30" height="35" viewBox="0 0 30 35" fill="none" xmlns="http://www.w3.org/2000/svg">
<path d="M13 27.75H5C2.58 27.75 1.25 26.42 1.25 24V16C1.25 13.58 2.58 12.25 5 12.25H10C10.41 12.25 10.75 12.59 10.75 13V24C10.75 25.58 11.42 26.25 13 26.25C13.41 26.25 13.75 26.59 13.75 27C13.75 27.41 13.41 27.75 13 27.75ZM5 13.75C3.42 13.75 2.75 14.42 2.75 16V24C2.75 25.58 3.42 26.25 5 26.25H9.79999C9.43999 25.66 9.25 24.91 9.25 24V13.75H5Z" fill="#4A628A"/>
<path d="M10 13.75H5C4.59 13.75 4.25 13.41 4.25 13V11C4.25 9.48 5.48 8.25 7 8.25H10.11C10.34 8.25 10.56 8.35998 10.7 8.53998C10.84 8.72998 10.89 8.97 10.83 9.19C10.77 9.41 10.75 9.66 10.75 10V13C10.75 13.41 10.41 13.75 10 13.75ZM5.75 12.25H9.25V10C9.25 9.91 9.25 9.83 9.25 9.75H7C6.31 9.75 5.75 10.31 5.75 11V12.25Z" fill="#4A628A"/>
<path d="M14 18.75C13.59 18.75 13.25 18.41 13.25 18V13C13.25 12.59 13.59 12.25 14 12.25C14.41 12.25 14.75 12.59 14.75 13V18C14.75 18.41 14.41 18.75 14 18.75Z" fill="#4A628A"/>
<path d="M18 18.75C17.59 18.75 17.25 18.41 17.25 18V13C17.25 12.59 17.59 12.25 18 12.25C18.41 12.25 18.75 12.59 18.75 13V18C18.75 18.41 18.41 18.75 18 18.75Z" fill="#4A628A"/>
<path d="M18 27.75H14C13.59 27.75 13.25 27.41 13.25 27V23C13.25 22.04 14.04 21.25 15 21.25H17C17.96 21.25 18.75 22.04 18.75 23V27C18.75 27.41 18.41 27.75 18 27.75ZM14.75 26.25H17.25V23C17.25 22.86 17.14 22.75 17 22.75H15C14.86 22.75 14.75 22.86 14.75 23V26.25Z" fill="#4A628A"/>
<path d="M6 22.75C5.59 22.75 5.25 22.41 5.25 22V18C5.25 17.59 5.59 17.25 6 17.25C6.41 17.25 6.75 17.59 6.75 18V22C6.75 22.41 6.41 22.75 6 22.75Z" fill="#4A628A"/>
<path d="M19 27.75H13C10.58 27.75 9.25 26.42 9.25 24V10C9.25 7.58 10.58 6.25 13 6.25H19C21.42 6.25 22.75 7.58 22.75 10V24C22.75 26.42 21.42 27.75 19 27.75ZM13 7.75C11.42 7.75 10.75 8.42 10.75 10V24C10.75 25.58 11.42 26.25 13 26.25H19C20.58 26.25 21.25 25.58 21.25 24V10C21.25 8.42 20.58 7.75 19 7.75H13Z" fill="#4A628A"/>
</svg>
