<svg width="20" height="27" viewBox="0 0 20 27" fill="none" xmlns="http://www.w3.org/2000/svg">
<path d="M17.5356 25.9738C17.298 26.0332 1.01854 25.9738 1.01854 25.9738C0.869996 25.2014 1.64333 22.8545 2.29592 22.8545C3.00891 22.8545 11.1585 22.805 15.1888 22.8545C15.1888 17.5964 11.7725 15.3683 11.5942 14.5068" stroke="#4A628A" stroke-width="1.5"/>
<path d="M12.4262 19.9431C11.7726 20.1807 2.71198 20.0619 2.71198 20.0619C0.513655 15.9326 -1.06086 5.98075 10.2279 2C10.2279 3.49724 10.2279 4.78256 10.2279 5.05983C11.8864 4.87207 13.6915 5.73958 15.0404 7.31756C16.6149 9.1594 17.8329 9.63471 18.2785 9.84266C18.2785 11.0904 18.2785 12.2786 18.2785 12.7242L16.7634 13.6749C16.605 13.1996 15.9167 12.334 14.5354 12.041C12.5747 11.6251 10.8814 12.7301 9.06929 12.041C7.38193 11.3993 7.37599 10.7339 7.07892 10.5556" stroke="#4A628A" stroke-width="1.5"/>
<path d="M4.91009 17.7446C4.91009 17.3881 3.54358 14.7145 4.40509 11.4467C5.2666 8.17891 7.11828 6.39648 8.17788 6.39648" stroke="#4A628A" stroke-width="1.5"/>
</svg>
