<svg width="26" height="26" viewBox="0 0 26 26" fill="none" xmlns="http://www.w3.org/2000/svg">
<circle cx="13" cy="13" r="12" stroke="#4A628A" stroke-width="1.5"/>
<path d="M5.10668 15.8731C4.65329 14.6274 4.50116 13.2921 4.66271 11.9764C4.82426 10.6607 5.29491 9.40185 6.03619 8.30287C6.77746 7.20389 7.7683 6.29595 8.9277 5.65329C10.0871 5.01062 11.3822 4.65148 12.707 4.60521C14.0318 4.55895 15.3487 4.82689 16.5501 5.38712C17.7515 5.94735 18.8033 6.78396 19.6194 7.82856C20.4355 8.87315 20.9928 10.0961 21.2458 11.3973C21.4987 12.6986 21.4401 14.0412 21.0747 15.3155" stroke="#4A628A" stroke-width="1.5" stroke-linecap="round" stroke-linejoin="round" stroke-dasharray="5 5"/>
<path d="M16.0364 10.6493L14.2391 11.7347C13.6025 12.1089 12.9285 12.4458 12.292 12.7452C12.1047 12.8201 11.8801 12.9323 11.6554 13.0446C10.8691 13.4563 10.4572 14.3171 10.6444 15.178C10.7942 15.8516 11.3558 16.413 12.0298 16.5627C12.1796 16.6002 12.3294 16.6002 12.4792 16.6002C13.1906 16.6002 13.8272 16.1884 14.1642 15.5522C14.2391 15.3651 14.3514 15.1405 14.4637 14.9159C14.8007 14.2797 15.1003 13.606 15.4747 12.9698L16.5606 11.1733C16.6355 11.0236 16.5981 10.8738 16.4857 10.7241C16.3734 10.5744 16.1862 10.5744 16.0364 10.6493ZM14.8382 12.558C14.4263 13.2317 14.0893 13.9054 13.7897 14.5791C13.7148 14.8037 13.6025 14.9908 13.4902 15.2154C13.2655 15.7019 12.7413 15.9265 12.2171 15.8142C11.8052 15.7393 11.4682 15.4025 11.3933 14.9908C11.281 14.4668 11.5056 13.9429 11.9924 13.7183C12.1796 13.606 12.4043 13.5312 12.629 13.4189C13.303 13.082 14.0144 12.7452 14.651 12.3709L15.1377 12.0715L14.8382 12.558Z" fill="#4A628A"/>
</svg>
