<svg width="20" height="20" viewBox="0 0 20 20" fill="none" xmlns="http://www.w3.org/2000/svg">
<path d="M7.22559 11.9417C7.22559 13.0167 8.05059 13.8834 9.07559 13.8834H11.1673C12.0589 13.8834 12.7839 13.125 12.7839 12.1917C12.7839 11.175 12.3423 10.8167 11.6839 10.5834L8.32559 9.4167C7.66725 9.18337 7.22559 8.82503 7.22559 7.80837C7.22559 6.87503 7.95059 6.1167 8.84225 6.1167H10.9339C11.9589 6.1167 12.7839 6.98337 12.7839 8.05837" stroke="#4A628A" stroke-width="1.5" stroke-linecap="round" stroke-linejoin="round"/>
<path d="M10 5V15" stroke="#4A628A" stroke-width="1.5" stroke-linecap="round" stroke-linejoin="round"/>
<path d="M1.66699 7.49984C1.66699 3.33317 3.33366 1.6665 7.50033 1.6665H12.5003C16.667 1.6665 18.3337 3.33317 18.3337 7.49984V12.4998C18.3337 16.6665 16.667 18.3332 12.5003 18.3332H7.50033C3.33366 18.3332 1.66699 16.6665 1.66699 12.4998V10.8582" stroke="#4A628A" stroke-width="1.5" stroke-linecap="round" stroke-linejoin="round"/>
</svg>
