<svg width="24" height="18" viewBox="0 0 24 18" fill="none" xmlns="http://www.w3.org/2000/svg">
<path d="M21.1668 7.4165H19.3335" stroke="#4A628A" stroke-width="1.5" stroke-linecap="round" stroke-linejoin="round"/>
<path d="M6.5 5.58333V1" stroke="#4A628A" stroke-width="1.5" stroke-linecap="round" stroke-linejoin="round"/>
<path d="M3.75 1H9.25" stroke="#4A628A" stroke-width="1.5" stroke-linecap="round" stroke-linejoin="round"/>
<path d="M9.40767 5.5835H2.83333C2.3471 5.5835 1.88079 5.77665 1.53697 6.12047C1.19315 6.46428 1 6.9306 1 7.41683V12.0002V14.7502C1 15.2364 1.19315 15.7027 1.53697 16.0465C1.88079 16.3903 2.3471 16.5835 2.83333 16.5835H12.2438C12.9085 16.5836 13.5607 16.4029 14.1307 16.061C14.7006 15.719 15.1669 15.2285 15.4797 14.642L19.3333 7.41683L14.3705 9.0705C14.209 9.12463 14.0357 9.13273 13.8699 9.09387C13.7041 9.05501 13.5524 8.97074 13.4318 8.8505L10.7038 6.11883C10.3598 5.77566 9.8936 5.58311 9.40767 5.5835Z" stroke="#4A628A" stroke-width="1.5" stroke-linecap="round" stroke-linejoin="round"/>
<path d="M23 12.9165V14.7498" stroke="#4A628A" stroke-width="1.5" stroke-linecap="round" stroke-linejoin="round"/>
</svg>
