<svg width="24" height="24" viewBox="0 0 24 24" fill="none" xmlns="http://www.w3.org/2000/svg">
<path d="M18 20C19.5 20 24 15.1038 24 9.77055C24 4.43729 24 0 21.5455 0C19.5215 0 19.7227 1.38003 19.8556 2.29137C19.8839 2.48525 19.9091 2.65793 19.9091 2.79159C19.9091 2.87051 19.9108 2.96847 19.9129 3.08321C19.9307 4.07612 19.971 6.32585 19.0909 8.37476C18.6924 9.30254 17.9433 10.0521 17.194 10.8019C16.0973 11.8993 15 12.9974 15 14.6558C15 17.4474 16.5 20 18 20Z" fill="#4A628A"/>
<path d="M4.5 18C1.25 18 0 19.3939 0 21.3333C0 23.2727 1.25 24 4.5 24H18.1482C18.7722 24 19.5 23.6364 19.5 22.6667C19.5 21.697 18 21.3333 18 21.3333C18 21.3333 7.75 18 4.5 18Z" fill="#4A628A"/>
</svg>
