<svg width="30" height="35" viewBox="0 0 30 35" fill="none" xmlns="http://www.w3.org/2000/svg">
<path d="M20.7514 12.05C20.5114 12.01 20.2614 12 20.0014 12H10.0014C9.72141 12 9.45141 12.02 9.19141 12.06C9.33141 11.78 9.53141 11.52 9.77141 11.28L13.0214 8.02C14.3914 6.66 16.6114 6.66 17.9814 8.02L19.7314 9.78996C20.3714 10.42 20.7114 11.22 20.7514 12.05Z" stroke="#4A628A" stroke-width="1.5" stroke-linecap="round" stroke-linejoin="round"/>
<path d="M12 24C12 24.75 11.79 25.46 11.42 26.06C10.73 27.22 9.46 28 8 28C6.54 28 5.27 27.22 4.58 26.06C4.21 25.46 4 24.75 4 24C4 21.79 5.79 20 8 20C10.21 20 12 21.79 12 24Z" stroke="#4A628A" stroke-width="1.5" stroke-miterlimit="10" stroke-linecap="round" stroke-linejoin="round"/>
<path d="M9.49172 23.9795H6.51172" stroke="#4A628A" stroke-width="1.5" stroke-miterlimit="10" stroke-linecap="round" stroke-linejoin="round"/>
<path d="M8 22.5195V25.5095" stroke="#4A628A" stroke-width="1.5" stroke-miterlimit="10" stroke-linecap="round" stroke-linejoin="round"/>
<path d="M25 17V22C25 25 23 27 20 27H10.63C10.94 26.74 11.21 26.42 11.42 26.06C11.79 25.46 12 24.75 12 24C12 21.79 10.21 20 8 20C6.8 20 5.73 20.53 5 21.36V17C5 14.28 6.64 12.38 9.19 12.06C9.45 12.02 9.72 12 10 12H20C20.26 12 20.51 12.01 20.75 12.05C23.33 12.35 25 14.26 25 17Z" stroke="#4A628A" stroke-width="1.5" stroke-linecap="round" stroke-linejoin="round"/>
<path d="M25 17.5H22C20.9 17.5 20 18.4 20 19.5C20 20.6 20.9 21.5 22 21.5H25" stroke="#4A628A" stroke-width="1.5" stroke-linecap="round" stroke-linejoin="round"/>
</svg>
