<svg width="24" height="24" viewBox="0 0 24 24" fill="none" xmlns="http://www.w3.org/2000/svg">
<path fill-rule="evenodd" clip-rule="evenodd" d="M12 2C17.5228 2 22 6.47715 22 12C22 17.5228 17.5228 22 12 22C6.47715 22 2 17.5228 2 12C2 6.47715 6.47715 2 12 2ZM4.20542 13.8092C4.91154 16.8636 7.36684 19.2485 10.4594 19.8518C10.2659 17.2269 9.40262 15.6527 8.31281 14.7809C7.26917 13.9459 5.85283 13.6228 4.20542 13.8092ZM15.6872 14.7809C14.5974 15.6527 13.7341 17.2269 13.5407 19.8518C16.6332 19.2485 19.0885 16.8636 19.7946 13.8092C18.1472 13.6228 16.7308 13.946 15.6872 14.7809ZM12 4C8.08997 4 4.83511 6.80508 4.13801 10.5126L4.09535 10.7611L6.30531 10.3191C6.88688 10.2028 7.44047 9.89558 8.05842 9.47902L8.53539 9.14737C9.33246 8.58089 10.5126 8 12 8C13.3882 8 14.5089 8.50602 15.3001 9.03406L15.9416 9.47902C16.4823 9.84351 16.9737 10.1243 17.4777 10.2667L17.6947 10.3191L19.9047 10.7611C19.3092 6.93114 15.9969 4 12 4Z" fill="#4A628A"/>
</svg>
