<svg width="22" height="22" viewBox="0 0 22 22" fill="none" xmlns="http://www.w3.org/2000/svg">
<path d="M16 10.8045C16 10.4588 16 10.286 16.052 10.132C16.2032 9.6844 16.6018 9.5108 17.0011 9.3289C17.45 9.1244 17.6744 9.0222 17.8968 9.0042C18.1493 8.98378 18.4022 9.0382 18.618 9.1593C18.9041 9.3198 19.1036 9.6249 19.3079 9.873C20.2513 11.0188 20.7229 11.5918 20.8955 12.2236C21.0348 12.7334 21.0348 13.2666 20.8955 13.7764C20.6438 14.6979 19.8485 15.4704 19.2598 16.1854C18.9587 16.5511 18.8081 16.734 18.618 16.8407C18.4022 16.9618 18.1493 17.0162 17.8968 16.9958C17.6744 16.9778 17.45 16.8756 17.0011 16.6711C16.6018 16.4892 16.2032 16.3156 16.052 15.868C16 15.714 16 15.5412 16 15.1955V10.8045Z" stroke="#4A628A" stroke-width="1.5"/>
<path d="M6 10.8046C6 10.3694 5.98778 9.97817 5.63591 9.67217C5.50793 9.56087 5.33825 9.48357 4.99891 9.32897C4.55001 9.12457 4.32556 9.02237 4.10316 9.00437C3.43591 8.95037 3.07692 9.40577 2.69213 9.87317C1.74875 11.019 1.27706 11.5919 1.10446 12.2237C0.96518 12.7336 0.96518 13.2668 1.10446 13.7766C1.3562 14.6981 2.15152 15.4705 2.74021 16.1856C3.11129 16.6363 3.46577 17.0475 4.10316 16.996C4.32556 16.978 4.55001 16.8757 4.99891 16.6713C5.33825 16.5167 5.50793 16.4394 5.63591 16.3281C5.98778 16.0221 6 15.631 6 15.1957V10.8046Z" stroke="#4A628A" stroke-width="1.5"/>
<path d="M19 9.5V8C19 4.13401 15.4183 1 11 1C6.58172 1 3 4.13401 3 8V9.5" stroke="#4A628A" stroke-width="1.5" stroke-linecap="round" stroke-linejoin="round"/>
<path d="M19 16.5C19 21 15 21 11 21" stroke="#4A628A" stroke-width="1.5" stroke-linecap="round" stroke-linejoin="round"/>
</svg>
