<svg width="24" height="24" viewBox="0 0 24 24" fill="none" xmlns="http://www.w3.org/2000/svg">
<path d="M15.1818 20.8752C14.7676 20.8752 14.4318 21.2109 14.4318 21.6252C14.4318 22.0394 14.7676 22.3752 15.1818 22.3752V20.8752ZM8.36364 22.3752C8.77785 22.3752 9.11364 22.0394 9.11364 21.6252C9.11364 21.2109 8.77785 20.8752 8.36364 20.8752V22.3752ZM9.27273 20.5418C9.68694 20.5418 10.0227 20.206 10.0227 19.7918C10.0227 19.3776 9.68694 19.0418 9.27273 19.0418V20.5418ZM13.3636 19.0418C12.9494 19.0418 12.6136 19.3776 12.6136 19.7918C12.6136 20.206 12.9494 20.5418 13.3636 20.5418V19.0418ZM7.45455 23.7502H16.3125V22.2502H7.45455V23.7502ZM17.75 22.3127V22.0797H16.25V22.3127H17.75ZM7.75 22.5456V22.307H6.25V22.5456H7.75ZM7.68182 22.3752H8.36364V20.8752H7.68182V22.3752ZM8.43182 21.6252V20.4736H6.93182V21.6252H8.43182ZM8.36364 20.5418H9.27273V19.0418H8.36364V20.5418ZM9.11364 19.7918V18.9585H7.61364V19.7918H9.11364ZM14.8864 18.9585V19.3335H16.3864V18.9585H14.8864ZM14.8864 19.3335V19.7918H16.3864V19.3335H14.8864ZM15.6364 19.0418H13.3636V20.5418H15.6364V19.0418ZM16.5455 20.8752H15.1818V22.3752H16.5455V20.8752ZM15.7955 20.7009V21.6252H17.2955V20.7009H15.7955ZM13.3636 18.7085H14.6364V17.2085H13.3636V18.7085ZM14.1136 17.9585V6.9585H12.6136V17.9585H14.1136ZM9.36364 18.7085H10.8636V17.2085H9.36364V18.7085ZM10.8636 18.7085H13.3636V17.2085H10.8636V18.7085ZM11.6136 17.9585V6.9585H10.1136V17.9585H11.6136ZM9.11364 18.9585C9.11364 18.8204 9.22557 18.7085 9.36364 18.7085V17.2085C8.39714 17.2085 7.61364 17.992 7.61364 18.9585H9.11364ZM8.43182 20.4736C8.43182 20.5113 8.40129 20.5418 8.36364 20.5418V19.0418C7.57286 19.0418 6.93182 19.6829 6.93182 20.4736H8.43182ZM15.6364 20.5418C15.7242 20.5418 15.7955 20.6131 15.7955 20.7009H17.2955C17.2955 19.7846 16.5527 19.0418 15.6364 19.0418V20.5418ZM7.75 22.307C7.75 22.3446 7.71947 22.3752 7.68182 22.3752V20.8752C6.89105 20.8752 6.25 21.5162 6.25 22.307H7.75ZM7.45455 22.2502C7.61772 22.2502 7.75 22.3824 7.75 22.5456H6.25C6.25 23.2109 6.78929 23.7502 7.45455 23.7502V22.2502ZM17.75 22.0797C17.75 21.4145 17.2107 20.8752 16.5455 20.8752V22.3752C16.3823 22.3752 16.25 22.2429 16.25 22.0797H17.75ZM16.3864 18.9585C16.3864 17.992 15.6029 17.2085 14.6364 17.2085V18.7085C14.7744 18.7085 14.8864 18.8204 14.8864 18.9585H16.3864ZM16.3125 23.7502C17.1064 23.7502 17.75 23.1066 17.75 22.3127H16.25C16.25 22.2781 16.278 22.2502 16.3125 22.2502V23.7502Z" fill="#4A628A"/>
<ellipse cx="12.0002" cy="4.20833" rx="3.18182" ry="3.20833" stroke="#4A628A" stroke-width="1.5"/>
<path d="M14 4C14 4.66667 13.6 6 12 6" stroke="#4A628A" stroke-width="1.5" stroke-linecap="round"/>
</svg>
